<mxfile host="app.diagrams.net" modified="2023-06-08T16:16:45.791Z" agent="Mozilla/5.0 (X11; Ubuntu; Linux x86_64; rv:109.0) Gecko/20100101 Firefox/113.0" etag="aJlmFS2owhjbgkVYx_Bz" version="21.3.4" type="github">
  <diagram name="Pagina-1" id="c6r7ROtZYmS65uKzIdzQ">
    <mxGraphModel dx="1262" dy="795" grid="1" gridSize="10" guides="1" tooltips="1" connect="1" arrows="1" fold="1" page="1" pageScale="1" pageWidth="827" pageHeight="1169" math="0" shadow="0">
      <root>
        <mxCell id="0" />
        <mxCell id="1" parent="0" />
        <mxCell id="LnVoANyj6Dh3y2EfFEzu-19" style="edgeStyle=orthogonalEdgeStyle;rounded=0;orthogonalLoop=1;jettySize=auto;html=1;entryX=-0.019;entryY=0.033;entryDx=0;entryDy=0;entryPerimeter=0;endArrow=open;endFill=0;" parent="1" source="LnVoANyj6Dh3y2EfFEzu-4" target="LnVoANyj6Dh3y2EfFEzu-12" edge="1">
          <mxGeometry relative="1" as="geometry" />
        </mxCell>
        <mxCell id="LnVoANyj6Dh3y2EfFEzu-20" style="edgeStyle=orthogonalEdgeStyle;rounded=0;orthogonalLoop=1;jettySize=auto;html=1;entryX=1.014;entryY=0.135;entryDx=0;entryDy=0;entryPerimeter=0;endArrow=open;endFill=0;" parent="1" source="LnVoANyj6Dh3y2EfFEzu-4" target="LnVoANyj6Dh3y2EfFEzu-9" edge="1">
          <mxGeometry relative="1" as="geometry" />
        </mxCell>
        <mxCell id="LnVoANyj6Dh3y2EfFEzu-21" style="edgeStyle=orthogonalEdgeStyle;rounded=0;orthogonalLoop=1;jettySize=auto;html=1;entryX=0.5;entryY=1;entryDx=0;entryDy=0;endArrow=block;endFill=0;startSize=12;endSize=10;" parent="1" source="LnVoANyj6Dh3y2EfFEzu-4" target="LnVoANyj6Dh3y2EfFEzu-14" edge="1">
          <mxGeometry relative="1" as="geometry" />
        </mxCell>
        <mxCell id="LnVoANyj6Dh3y2EfFEzu-4" value="GestioneProfessionista Controller" style="swimlane;fontStyle=1;align=center;verticalAlign=top;childLayout=stackLayout;horizontal=1;startSize=30;horizontalStack=0;resizeParent=1;resizeParentMax=0;resizeLast=0;collapsible=1;marginBottom=0;whiteSpace=wrap;html=1;fillColor=#60a917;fontColor=#ffffff;strokeColor=#2D7600;" parent="1" vertex="1">
          <mxGeometry x="120" y="360" width="210" height="90" as="geometry" />
        </mxCell>
        <mxCell id="LnVoANyj6Dh3y2EfFEzu-5" value="" style="line;strokeWidth=1;fillColor=none;align=left;verticalAlign=middle;spacingTop=-1;spacingLeft=3;spacingRight=3;rotatable=0;labelPosition=right;points=[];portConstraint=eastwest;strokeColor=inherit;" parent="LnVoANyj6Dh3y2EfFEzu-4" vertex="1">
          <mxGeometry y="30" width="210" height="8" as="geometry" />
        </mxCell>
        <mxCell id="LnVoANyj6Dh3y2EfFEzu-6" value="&lt;div&gt;+List&amp;lt;Post&amp;gt; VisualizzaPost()&lt;/div&gt;&lt;div&gt;+List&amp;lt;Notifica&amp;gt; VisualizzaNotifiche()&lt;br&gt;&lt;/div&gt;" style="text;strokeColor=none;fillColor=none;align=center;verticalAlign=top;spacingLeft=4;spacingRight=4;overflow=hidden;rotatable=0;points=[[0,0.5],[1,0.5]];portConstraint=eastwest;whiteSpace=wrap;html=1;" parent="LnVoANyj6Dh3y2EfFEzu-4" vertex="1">
          <mxGeometry y="38" width="210" height="52" as="geometry" />
        </mxCell>
        <mxCell id="LnVoANyj6Dh3y2EfFEzu-7" value="Modifica Profilo Professionista Controller" style="swimlane;fontStyle=1;align=center;verticalAlign=top;childLayout=stackLayout;horizontal=1;startSize=34;horizontalStack=0;resizeParent=1;resizeParentMax=0;resizeLast=0;collapsible=1;marginBottom=0;whiteSpace=wrap;html=1;fillColor=#60a917;fontColor=#ffffff;strokeColor=#2D7600;" parent="1" vertex="1">
          <mxGeometry x="-257" y="354" width="210" height="110" as="geometry" />
        </mxCell>
        <mxCell id="LnVoANyj6Dh3y2EfFEzu-8" value="" style="line;strokeWidth=1;fillColor=none;align=left;verticalAlign=middle;spacingTop=-1;spacingLeft=3;spacingRight=3;rotatable=0;labelPosition=right;points=[];portConstraint=eastwest;strokeColor=inherit;" parent="LnVoANyj6Dh3y2EfFEzu-7" vertex="1">
          <mxGeometry y="34" width="210" height="8" as="geometry" />
        </mxCell>
        <mxCell id="LnVoANyj6Dh3y2EfFEzu-9" value="&lt;br&gt;&lt;br&gt;+ModificaProfilo(Username, Profilo)" style="text;strokeColor=none;fillColor=none;align=center;verticalAlign=top;spacingLeft=4;spacingRight=4;overflow=hidden;rotatable=0;points=[[0,0.5],[1,0.5]];portConstraint=eastwest;whiteSpace=wrap;html=1;" parent="LnVoANyj6Dh3y2EfFEzu-7" vertex="1">
          <mxGeometry y="42" width="210" height="68" as="geometry" />
        </mxCell>
        <mxCell id="LnVoANyj6Dh3y2EfFEzu-10" value="Creazione ProPost Controller" style="swimlane;fontStyle=1;align=center;verticalAlign=top;childLayout=stackLayout;horizontal=1;startSize=30;horizontalStack=0;resizeParent=1;resizeParentMax=0;resizeLast=0;collapsible=1;marginBottom=0;whiteSpace=wrap;html=1;fillColor=#60a917;fontColor=#ffffff;strokeColor=#2D7600;" parent="1" vertex="1">
          <mxGeometry x="510" y="365" width="210" height="100" as="geometry" />
        </mxCell>
        <mxCell id="LnVoANyj6Dh3y2EfFEzu-11" value="" style="line;strokeWidth=1;fillColor=none;align=left;verticalAlign=middle;spacingTop=-1;spacingLeft=3;spacingRight=3;rotatable=0;labelPosition=right;points=[];portConstraint=eastwest;strokeColor=inherit;" parent="LnVoANyj6Dh3y2EfFEzu-10" vertex="1">
          <mxGeometry y="30" width="210" height="8" as="geometry" />
        </mxCell>
        <mxCell id="LnVoANyj6Dh3y2EfFEzu-12" value="+CreazioneProPost(username, Propost)" style="text;strokeColor=none;fillColor=none;align=center;verticalAlign=top;spacingLeft=4;spacingRight=4;overflow=hidden;rotatable=0;points=[[0,0.5],[1,0.5]];portConstraint=eastwest;whiteSpace=wrap;html=1;" parent="LnVoANyj6Dh3y2EfFEzu-10" vertex="1">
          <mxGeometry y="38" width="210" height="62" as="geometry" />
        </mxCell>
        <mxCell id="LnVoANyj6Dh3y2EfFEzu-14" value="Controller" style="swimlane;fontStyle=1;align=center;verticalAlign=top;childLayout=stackLayout;horizontal=1;startSize=30;horizontalStack=0;resizeParent=1;resizeParentMax=0;resizeLast=0;collapsible=1;marginBottom=0;whiteSpace=wrap;html=1;fillColor=#60a917;fontColor=#ffffff;strokeColor=#2D7600;" parent="1" vertex="1">
          <mxGeometry x="120" y="130" width="210" height="120" as="geometry" />
        </mxCell>
        <mxCell id="LnVoANyj6Dh3y2EfFEzu-17" value="dbConnection: Connection" style="text;html=1;align=center;verticalAlign=middle;resizable=0;points=[];autosize=1;strokeColor=none;fillColor=none;" parent="LnVoANyj6Dh3y2EfFEzu-14" vertex="1">
          <mxGeometry y="30" width="210" height="30" as="geometry" />
        </mxCell>
        <mxCell id="LnVoANyj6Dh3y2EfFEzu-15" value="" style="line;strokeWidth=1;fillColor=none;align=left;verticalAlign=middle;spacingTop=-1;spacingLeft=3;spacingRight=3;rotatable=0;labelPosition=right;points=[];portConstraint=eastwest;strokeColor=inherit;" parent="LnVoANyj6Dh3y2EfFEzu-14" vertex="1">
          <mxGeometry y="60" width="210" height="20" as="geometry" />
        </mxCell>
        <mxCell id="LnVoANyj6Dh3y2EfFEzu-16" value="-openConnection(String)&lt;br&gt;#Connection getConnection()" style="text;strokeColor=none;fillColor=none;align=center;verticalAlign=top;spacingLeft=4;spacingRight=4;overflow=hidden;rotatable=0;points=[[0,0.5],[1,0.5]];portConstraint=eastwest;whiteSpace=wrap;html=1;" parent="LnVoANyj6Dh3y2EfFEzu-14" vertex="1">
          <mxGeometry y="80" width="210" height="40" as="geometry" />
        </mxCell>
        <mxCell id="LnVoANyj6Dh3y2EfFEzu-22" value="1" style="text;html=1;align=center;verticalAlign=middle;resizable=0;points=[];autosize=1;strokeColor=none;fillColor=none;" parent="1" vertex="1">
          <mxGeometry x="-45" y="378" width="30" height="30" as="geometry" />
        </mxCell>
        <mxCell id="LnVoANyj6Dh3y2EfFEzu-23" value="1" style="text;html=1;align=center;verticalAlign=middle;resizable=0;points=[];autosize=1;strokeColor=none;fillColor=none;" parent="1" vertex="1">
          <mxGeometry x="90" y="378" width="30" height="30" as="geometry" />
        </mxCell>
        <mxCell id="LnVoANyj6Dh3y2EfFEzu-27" value="1" style="text;html=1;align=center;verticalAlign=middle;resizable=0;points=[];autosize=1;strokeColor=none;fillColor=none;" parent="1" vertex="1">
          <mxGeometry x="485" y="418" width="30" height="30" as="geometry" />
        </mxCell>
        <mxCell id="LnVoANyj6Dh3y2EfFEzu-28" value="1" style="text;html=1;align=center;verticalAlign=middle;resizable=0;points=[];autosize=1;strokeColor=none;fillColor=none;" parent="1" vertex="1">
          <mxGeometry x="335" y="418" width="30" height="30" as="geometry" />
        </mxCell>
        <mxCell id="LnVoANyj6Dh3y2EfFEzu-34" style="edgeStyle=orthogonalEdgeStyle;rounded=0;orthogonalLoop=1;jettySize=auto;html=1;entryX=0.75;entryY=0;entryDx=0;entryDy=0;endArrow=none;endFill=0;" parent="1" source="LnVoANyj6Dh3y2EfFEzu-33" target="LnVoANyj6Dh3y2EfFEzu-4" edge="1">
          <mxGeometry relative="1" as="geometry" />
        </mxCell>
        <mxCell id="LnVoANyj6Dh3y2EfFEzu-33" value="" style="ellipse;whiteSpace=wrap;html=1;aspect=fixed;" parent="1" vertex="1">
          <mxGeometry x="263" y="310" width="30" height="30" as="geometry" />
        </mxCell>
        <mxCell id="LnVoANyj6Dh3y2EfFEzu-35" value="IGestioneProfessionista" style="text;html=1;align=center;verticalAlign=middle;resizable=0;points=[];autosize=1;strokeColor=none;fillColor=none;" parent="1" vertex="1">
          <mxGeometry x="290" y="310" width="150" height="30" as="geometry" />
        </mxCell>
        <mxCell id="LnVoANyj6Dh3y2EfFEzu-36" style="edgeStyle=orthogonalEdgeStyle;rounded=0;orthogonalLoop=1;jettySize=auto;html=1;entryX=0.75;entryY=0;entryDx=0;entryDy=0;endArrow=none;endFill=0;" parent="1" source="LnVoANyj6Dh3y2EfFEzu-37" edge="1">
          <mxGeometry relative="1" as="geometry">
            <mxPoint x="665" y="360" as="targetPoint" />
          </mxGeometry>
        </mxCell>
        <mxCell id="LnVoANyj6Dh3y2EfFEzu-37" value="" style="ellipse;whiteSpace=wrap;html=1;aspect=fixed;" parent="1" vertex="1">
          <mxGeometry x="650" y="310" width="30" height="30" as="geometry" />
        </mxCell>
        <mxCell id="LnVoANyj6Dh3y2EfFEzu-38" value="ICreazioneProPost" style="text;html=1;align=center;verticalAlign=middle;resizable=0;points=[];autosize=1;strokeColor=none;fillColor=none;" parent="1" vertex="1">
          <mxGeometry x="675" y="310" width="120" height="30" as="geometry" />
        </mxCell>
        <mxCell id="LnVoANyj6Dh3y2EfFEzu-39" style="edgeStyle=orthogonalEdgeStyle;rounded=0;orthogonalLoop=1;jettySize=auto;html=1;entryX=0.75;entryY=0;entryDx=0;entryDy=0;endArrow=none;endFill=0;" parent="1" source="LnVoANyj6Dh3y2EfFEzu-40" edge="1">
          <mxGeometry relative="1" as="geometry">
            <mxPoint x="-117" y="356" as="targetPoint" />
          </mxGeometry>
        </mxCell>
        <mxCell id="LnVoANyj6Dh3y2EfFEzu-40" value="" style="ellipse;whiteSpace=wrap;html=1;aspect=fixed;" parent="1" vertex="1">
          <mxGeometry x="-132" y="306" width="30" height="30" as="geometry" />
        </mxCell>
        <mxCell id="LnVoANyj6Dh3y2EfFEzu-41" value="IModificaProfiloProfessionista" style="text;html=1;align=center;verticalAlign=middle;resizable=0;points=[];autosize=1;strokeColor=none;fillColor=none;" parent="1" vertex="1">
          <mxGeometry x="-110" y="310" width="180" height="30" as="geometry" />
        </mxCell>
      </root>
    </mxGraphModel>
  </diagram>
</mxfile>
